<?xml version="1.0" encoding="UTF-8"?>
<svg id="Calque_1" data-name="Calque 1" xmlns="http://www.w3.org/2000/svg" viewBox="0 0 26.18 12.36">
  <defs>
    <style>
      .cls-1 {
        fill: #fff;
      }
    </style>
  </defs>
  <path class="cls-1" d="M8.19.11c4.49.05,4.3,6.04,3.03,9.76-.37,1.08-1.08,2.09-2.38,2.08-1.74,0-1.49-1.39-1.51-2.51,0-.48-.34-.66-.95-.67-.27,0-.57.02-.93.07-.52.09-.58.21-.81.6-.76,1.21-1.52,2.86-3.33,2.85-1.36,0-1.53-.83-1.12-2.14.58-1.84,2.35-4.47,3.46-6.33C4.68,2.12,6.05.09,8.19.11ZM7.34,6.23c.34,0,.44-.06.54-.37.32-.97.24-2.08-.15-2.09-.59,0-1.3,1.26-1.58,2.11-.05.16,0,.24.3.28.26.04.57.06.89.07Z"/>
  <path class="cls-1" d="M21.01,12.23c-3.22-.02-1.8-5.04-2.77-5.05-.46,0-.79.72-1,1.32-.06.17-.1.35-.15.48l-.24.68c-.51,1.42-1.18,2.71-2.57,2.71-2.78-.02-2.34-2.01-1.62-4.09.26-.76.57-1.52.83-2.21.57-1.58,1.86-5.76,4.58-5.73,2.32.02,1.53,4.81,2.65,4.82.17,0,.3-.16.39-.41.22-.61.64-1.82.93-2.62C22.45,1.01,23.24-.01,24.55,0c1.99.02,1.85,1.59,1.21,3.3-.83,2.23-1.41,3.85-2.26,6.11-.51,1.38-1.12,2.82-2.48,2.82Z"/>
</svg>